<svg id="pezImg" xmlns="http://www.w3.org/2000/svg" xmlns:xlink="http://www.w3.org/1999/xlink" viewBox="0 0 571.07 518.43"><defs>
<clipPath id="clip-path" transform="translate(-474 -191.14)">
<path id="mascara" class="cls-1" d="M666.58,294.28a197.79,197.79,0,0,1,117.07-48.82c90.74-5,181.87,53.48,206.12,146.54l-.46.3A199.07,199.07,0,0,1,996,443.5v0a198.53,198.53,0,0,1-9.51,60.79l.67.33C959.16,592.56,869.27,647,781,641.32a198,198,0,0,1-82.4-25.65l-.42.54a193.43,193.43,0,0,1-41.05-32.35c-77.24-75.76-77.24-205,0-280.72q4.61-4.68,9.38-8.94Z"/></clipPath>
</defs><g id="pez">
<path id="labios" class="cls-2" d="M985.77,392c19-12.17,44-15,55.8,8.1,10.88,22.8-5.15,41.29-26.56,48.91,15,5.77,30.54,17.22,29.63,34.56.5,23-25.67,39.51-46.24,28.65l-15.24-7.57A190.87,190.87,0,0,0,992,443.53v0A196.16,196.16,0,0,0,985.77,392Z" transform="translate(-474 -191.14)"/><path id="cola" class="cls-2" d="M608.18,490.74,522.91,540C501.17,552.52,474,536.83,474,511.74V375.26c0-25.09,27.17-40.78,48.91-28.23l85.27,49.23a199.29,199.29,0,0,0,0,94.48Z" transform="translate(-474 -191.14)"/>
<path id="aletaInf" class="cls-2" d="M835,635.45c-31,31.89-189.26,57.41-157.14,3.72l20.37-26A186.89,186.89,0,0,0,781,638.32,199.71,199.71,0,0,0,835,635.45Z" transform="translate(-474 -191.14)"/>
<path id="aletaSup" class="cls-2" d="M870,264.66a199.86,199.86,0,0,0-86.35-13.2A189.33,189.33,0,0,0,666.52,300.2L635.79,261C587.72,181,821.52,218.16,870,264.66Z" transform="translate(-474 -191.14)"/><g id="cuerpoGrupo"><g class="cls-3">
<path id="cuerpo" class="cls-4" d="M666.58,294.28a197.79,197.79,0,0,1,117.07-48.82c90.74-5,181.87,53.48,206.12,146.54l-.46.3A199.07,199.07,0,0,1,996,443.5v0a198.53,198.53,0,0,1-9.51,60.79l.67.33C959.16,592.56,869.27,647,781,641.32a198,198,0,0,1-82.4-25.65l-.42.54a193.43,193.43,0,0,1-41.05-32.35c-77.24-75.76-77.24-205,0-280.72q4.61-4.68,9.38-8.94Z" transform="translate(-474 -191.14)"/><g id="linea1">
<path class="cls-5" d="M622.37,296.49c19.62,12.37,31.39,35.65,30.68,58.68a65.4,65.4,0,0,1-3.33,18.26A158.17,158.17,0,0,1,641.59,393c-6,12.54-12.41,25.09-14.73,38.91-2.15,12.75-1.38,26.8,6.23,37.74,6.38,9.18,16.19,14.66,24.21,22.18.86.8,1.69,1.62,2.48,2.48q.59.63,1.14,1.29l.54.66c-.54-.67.28.39.3.43a23,23,0,0,1,1.73,2.81c.09.17.75,1.6.41.77a20.24,20.24,0,0,1,.67,1.94q.23.81.39,1.62c0,.28.1.56.14.83-.11-.81,0-.06,0,.09a19.34,19.34,0,0,1-.23,4.5,40.49,40.49,0,0,1-3.7,9.61q-10.75,21.69-22.53,42.87C624.76,586.83,606.12,615,614.79,645a49.35,49.35,0,0,0,4.07,9.9c2.76,5.1,10.53.56,7.77-4.54-6.39-11.83-6-26-2.35-38.69,4.13-14.48,12.08-27.44,19.38-40.48q11.85-21.15,22.77-42.81c3.47-6.88,7.65-14.06,7.71-22a24.79,24.79,0,0,0-5.1-14.91c-6.52-8.71-16.24-14-23.93-21.5a32.35,32.35,0,0,1-8.55-13.63A45.44,45.44,0,0,1,635,438.43c1.17-13,7-25.52,12.7-37.4,6.27-13.08,12.46-26.34,14-40.92,2.59-24.42-8.14-50.25-27.1-65.81a75.44,75.44,0,0,0-7.7-5.58,4.5,4.5,0,0,0-4.54,7.77Z" transform="translate(-474 -191.14)"/></g><g id="linea2">
<path class="cls-5" d="M664.44,282.11c23,13.44,33.68,41.18,34.72,66.86.7,17.24-2.28,34.34-6.24,51.06-2,8.62-4.35,17.18-6.62,25.75-2.16,8.14-6.06,17.79-1.78,25.87,3.21,6.05,10,8.48,16,10.73,5.62,2.11,10.37,4.76,13.39,10.4a19.38,19.38,0,0,1,.48,17.35c-3,6.93-8.38,12.56-12.74,18.62-4.68,6.49-8.76,14.47-8.44,22.69.29,7.44,4.27,13.19,9,18.63.94,1.08,1.9,2.16,2.83,3.25.51.6,1,1.2,1.5,1.81.31.39.43.53,1,1.29a23.18,23.18,0,0,1,2,3.41c-.33-.71,0,.12.11.31.11.34.23.67.32,1s.13.55.2.82c.29,1.13,0-.67.07.5a18.88,18.88,0,0,1,0,2c-.08.8.29-.94-.06.26-.08.26-.13.53-.2.79s-.2.63-.31.94c-.26.68.51-.86-.1.17-.34.56-.65,1.12-1,1.66-.46.71-.12.17,0,0-.21.26-.42.51-.65.75-.41.44-.84.87-1.28,1.28s-1,.91-1.58,1.33c.15-.12.62-.44-.1.07l-1.05.75c-4.78,3.33-10.07,6-14.29,10.11a23.19,23.19,0,0,0-7.13,16.84c0,12.73,7.82,23.83,9.74,36.2.24,1.52,0-.43.06.47,0,.39.08.79.11,1.19,0,.63.07,1.26.07,1.89a16.09,16.09,0,0,1-.35,4,4.63,4.63,0,0,0,3.14,5.54c2.22.61,5.06-.75,5.54-3.15,2.7-13.42-4.42-25.38-7.95-37.87-.41-1.43-.76-2.87-1-4.33-.06-.37-.13-.75-.18-1.12.1.74,0,0,0-.14-.07-.81-.13-1.61-.14-2.42,0-.66,0-1.31.06-2,0,.06.17-1.33.07-.68s.16-.74.15-.68c.13-.63.33-1.25.51-1.87.05-.18.39-1.06.1-.37.18-.41.38-.82.59-1.21.33-.61.7-1.19,1.08-1.77.11-.16.68-.88.19-.28.18-.22.37-.43.55-.64a26.72,26.72,0,0,1,3.15-3c1.09-.89-.36.26.31-.24l.89-.65c.55-.39,1.1-.77,1.66-1.14,1.25-.83,2.52-1.62,3.78-2.42,4.8-3,10.12-6.39,12.78-11.61,3.07-6,2.21-12.76-1.36-18.36-3.3-5.18-8.3-9.51-11.24-14.23-.4-.65-.79-1.33-1.13-2-.13-.27-.27-.55-.39-.83.25.6,0-.11-.05-.2a14.62,14.62,0,0,1-.85-5.28,23.94,23.94,0,0,1,3-10.28c3.63-7,9.15-12.64,13.46-19.17s7.26-14,6.31-21.87a29,29,0,0,0-10-18.86,34.57,34.57,0,0,0-9.61-5.39c-2.92-1.17-5.83-2.1-8.18-3.29-2.54-1.29-4.21-2.38-5.2-4.7-1.25-2.94-.12-7,.68-10.08,2.26-8.8,4.69-17.56,6.92-26.38,4.42-17.44,8.15-35.25,8.54-53.3.6-27.77-8.15-58.46-30.51-76.51a69.87,69.87,0,0,0-8.73-6.08c-5-2.92-9.55,4.85-4.54,7.77Z" transform="translate(-474 -191.14)"/></g><g id="linea3"><path class="cls-5" d="M737.58,636.11a137.09,137.09,0,0,0,22.51-83.92c-.91-15.11-4.56-29.43-9.92-43.53-5.58-14.65-11.78-29.79-7.06-45.56,2.26-7.56,6-14.56,9-21.86a113.41,113.41,0,0,0,6.14-20.09c2.77-13.7,2.78-28.08-3-41-2.82-6.37-7.22-11.71-12.23-16.47s-10.34-9-13.45-15.1c-3.23-6.34-3-13.87-1.73-20.69,1.44-7.64,4-15,6.3-22.41a203.5,203.5,0,0,0,4.53-99.28q-1.22-6-2.8-11.82c-1.5-5.59-10.18-3.22-8.68,2.39a194.08,194.08,0,0,1,1,96.56c-3.7,14.94-11.12,30.07-10.08,45.78a35.46,35.46,0,0,0,8.4,20.83c4.39,5.27,10,9.39,14.51,14.5,8.67,9.72,10.87,22.94,9.82,35.56-1.17,14.1-6.6,26.84-12.15,39.65-3.27,7.53-6,15.2-6.35,23.49-.33,8,1.45,16,3.89,23.49s5.65,15,8.27,22.61a127.18,127.18,0,0,1,5.32,21.13,128.64,128.64,0,0,1-14.41,82.16c-1.73,3.11-3.6,6.14-5.58,9.09a4.5,4.5,0,1,0,7.77,4.54Z" transform="translate(-474 -191.14)"/></g><g id="linea4"><path class="cls-5" d="M767.39,228.13a66.72,66.72,0,0,0,13.76,46.93c4.66,6,11.47,11.23,11.89,19.38.47,8.92-3.77,17.76-6.74,26-3.44,9.45-6.91,18.9-10.31,28.37-3,8.45-5,17.12-1.18,25.66,5.53,12.45,20.76,18.91,22,33.47.66,7.51-1.48,14.92-3.68,22-2.31,7.47-5,14.88-6.35,22.62A58.31,58.31,0,0,0,788.16,478c2.18,8.12,5.49,15.89,7.79,24,2.54,8.94,2.76,17.66,1.79,26.87s-2.57,18.45-2,27.77c.64,9.62,3,19,5.71,28.23,2.55,8.76,6.16,17.83,6,27.08-.12,8.92-6.09,16.06-7.55,24.67s.6,17,4.52,24.7c7.83,15.24,22.28,24.72,33.68,37a63.15,63.15,0,0,1,7.23,9.22c3.1,4.87,10.9.36,7.77-4.55-9.08-14.26-23.6-23.26-34.26-36.1-4.95-6-9.25-13.31-10.28-21.1-1.13-8.66,3.37-15.43,6.1-23.27,3.18-9.16,1.51-18.88-1-28-2.5-8.9-5.47-17.68-7.34-26.74a87,87,0,0,1-.94-27.7c1-9.19,2.61-18.46,1.68-27.73-.88-8.71-3.7-16.89-6.56-25.1-2.68-7.69-5.47-15.59-5.68-23.81-.38-15.73,8.22-30,10.47-45.33,1.13-7.71.64-15.33-2.8-22.43-3.13-6.46-8.63-11.36-13.44-16.53s-8.37-10.52-7.35-17.78c.64-4.54,2.47-8.93,4-13.21l5-13.78c3.26-9,7.05-17.93,9.57-27.16,2.38-8.71,2.62-18-2.45-25.8a85.86,85.86,0,0,0-7.69-9.44,56.93,56.93,0,0,1-6.69-9.46,57.56,57.56,0,0,1-7.15-22.35,62.59,62.59,0,0,1,0-12c.23-2.42-2.24-4.5-4.5-4.5-2.63,0-4.27,2.07-4.5,4.5Z" transform="translate(-474 -191.14)"/></g></g></g>
<circle id="ojoBlanco" class="cls-6" cx="423.5" cy="203.36" r="48.5"/>
<circle id="ojoNegro" cx="431.5" cy="213.36" r="31.5"/></g></svg>